<svg width="147pt" height="225pt" version="1.0" viewBox="69 45.020103454589844 87.79508972167969 134.89263916015625" xmlns="http://www.w3.org/2000/svg">
<metadata>Created by potrace 1.16, written by Peter Selinger 2001-2019</metadata>
<g transform="translate(0 225) scale(.1 -.1)" fill="#f5f5f5">
<path d="m930 1793c-68-25-65-68 15-228 35-71 77-170 92-220 25-82 27-105 28-252 0-211-16-236-34-51-15 167-53 373-86 469-14 41-22 63-19 49 13-57 16-329 5-413-23-175-83-336-168-455l-46-65 46 32c26 18 63 39 82 47 38 15 115 19 115 5 0-5-17-28-39-52l-39-44-96-3c-53-2-96-6-96-9s21-32 48-64c46-58 48-59 97-59 28 0 106-7 175-15 159-19 200-19 270 1l56 16 47 95c26 52 75 137 107 190 33 52 58 99 55 104-4 5-17 9-31 9-13 0-24 2-24 4s11 23 25 48c35 63 58 163 52 221-17 144-141 278-355 386-68 34-229 91-258 91-11 0-26 5-34 10-27 19 24 50 81 50 43 0 51-3 61-24 14-32 22-35 119-41 86-6 96 3 29 25-23 7-43 17-46 21-2 4 17 15 43 26l48 18-30 6c-16 4-49 7-72 8-32 1-45 6-53 22-21 38-117 61-170 42zm501-842c43-43 38-57-22-65-80-11-150-42-240-107-123-89-119-87-119-38 0 37 6 48 67 110 119 124 249 165 314 100z"></path>
</g>
</svg>